<svg xmlns="http://www.w3.org/2000/svg" xmlns:xlink="http://www.w3.org/1999/xlink" width="1080" zoomAndPan="magnify" viewBox="0 0 810 809.999993" height="1080" preserveAspectRatio="xMidYMid meet" version="1.0"><path fill="#ffffff" d="M 422.957031 179.324219 C 422.796875 179.640625 421.453125 183.515625 420.027344 187.867188 C 416.3125 199.257812 416.230469 199.335938 410.21875 199.335938 C 407.453125 199.335938 402.546875 199.574219 399.226562 199.8125 C 394.082031 200.285156 393.132812 200.601562 393.132812 201.789062 C 393.132812 203.132812 397.878906 207.167969 406.027344 212.703125 C 408.085938 214.050781 409.746094 215.867188 409.746094 216.582031 C 409.746094 217.292969 408.636719 222.039062 407.292969 227.101562 C 404.839844 236.117188 404.683594 239.441406 406.898438 238.648438 C 407.53125 238.414062 411.800781 235.484375 416.390625 232.164062 L 424.855469 226.074219 L 433.949219 232.558594 C 446.527344 241.496094 447.320312 240.863281 442.492188 225.757812 C 440.910156 220.851562 439.804688 216.34375 440.042969 215.710938 C 440.277344 215.15625 443.601562 212.46875 447.476562 209.855469 C 455.070312 204.636719 457.601562 202.261719 456.890625 201.078125 C 456.652344 200.601562 451.667969 200.046875 445.816406 199.730469 C 440.042969 199.414062 434.820312 198.863281 434.265625 198.546875 C 433.714844 198.230469 431.816406 193.71875 429.996094 188.578125 C 427.304688 180.828125 426.4375 179.085938 425.011719 178.929688 C 424.140625 178.769531 423.191406 178.929688 422.957031 179.324219 Z M 422.957031 179.324219 " fill-opacity="1" fill-rule="nonzero"/><path fill="#ffffff" d="M 338 195.066406 L 335.46875 197.914062 L 338.238281 200.601562 L 340.925781 203.371094 L 346.621094 197.675781 L 344.566406 195.777344 C 343.457031 194.75 342.507812 193.484375 342.507812 193.007812 C 342.507812 191.425781 340.53125 192.375 338 195.066406 Z M 338 195.066406 " fill-opacity="1" fill-rule="nonzero"/><path fill="#ffffff" d="M 502.609375 205.664062 C 501.660156 207.957031 500.554688 209.144531 498.261719 210.171875 C 494.464844 211.914062 494.382812 213.257812 497.863281 214.839844 C 499.367188 215.632812 501.265625 217.449219 502.292969 219.269531 C 503.242188 220.929688 504.429688 222.195312 504.90625 222.039062 C 505.457031 221.878906 506.488281 220.457031 507.355469 218.875 C 508.386719 216.976562 509.886719 215.632812 511.945312 214.839844 C 513.605469 214.128906 514.949219 213.417969 514.949219 213.179688 C 514.949219 212.941406 513.527344 211.914062 511.707031 210.804688 C 509.886719 209.621094 508.070312 207.640625 507.4375 206.140625 C 505.695312 202.105469 504.113281 201.945312 502.609375 205.664062 Z M 502.609375 205.664062 " fill-opacity="1" fill-rule="nonzero"/><path fill="#ffffff" d="M 329.300781 225.992188 C 328.269531 228.128906 326.925781 229.472656 324.554688 230.582031 C 320.359375 232.480469 320.125 234.457031 323.921875 235.722656 C 325.898438 236.355469 327.320312 237.621094 328.746094 240.152344 C 329.851562 242.050781 331.199219 243.632812 331.671875 243.632812 C 332.226562 243.632812 333.492188 242.050781 334.519531 240.152344 C 335.863281 237.542969 337.128906 236.277344 339.425781 235.40625 C 341.085938 234.695312 342.507812 233.746094 342.507812 233.351562 C 342.507812 232.875 340.925781 231.847656 338.949219 230.976562 C 336.339844 229.871094 335.074219 228.683594 333.808594 226.308594 C 332.9375 224.492188 331.832031 223.066406 331.433594 223.066406 C 331.039062 223.066406 330.011719 224.410156 329.300781 225.992188 Z M 329.300781 225.992188 " fill-opacity="1" fill-rule="nonzero"/><path fill="#ffffff" d="M 264.277344 234.933594 L 262.539062 237.382812 L 264.753906 239.679688 L 266.886719 241.972656 L 269.183594 239.679688 L 271.476562 237.304688 L 269.578125 235.011719 C 267.285156 232.003906 266.492188 232.003906 264.277344 234.933594 Z M 264.277344 234.933594 " fill-opacity="1" fill-rule="nonzero"/><path fill="#ffffff" d="M 460.054688 236.117188 C 459.421875 237.9375 460.132812 239.125 463.375 241.261719 C 467.648438 244.1875 477.296875 252.652344 482.519531 258.1875 C 503.796875 280.574219 515.109375 309.921875 513.84375 339.980469 L 513.449219 351.289062 L 515.1875 351.054688 C 518.429688 350.578125 520.488281 340.53125 520.488281 325.109375 C 520.488281 313.242188 518.984375 303.828125 515.265625 292.753906 C 507.199219 268.550781 491.457031 249.328125 470.652344 238.175781 C 464.246094 234.773438 460.84375 234.140625 460.054688 236.117188 Z M 460.054688 236.117188 " fill-opacity="1" fill-rule="nonzero"/><path fill="#ffffff" d="M 531.957031 245.136719 C 531.71875 246.007812 530.769531 246.957031 529.902344 247.191406 C 527.765625 247.90625 528.003906 248.855469 530.929688 251.464844 L 533.460938 253.679688 L 535.992188 251.226562 L 538.601562 248.773438 L 535.753906 246.164062 C 534.171875 244.820312 532.75 243.632812 532.667969 243.632812 C 532.511719 243.632812 532.273438 244.34375 531.957031 245.136719 Z M 531.957031 245.136719 " fill-opacity="1" fill-rule="nonzero"/><path fill="#ffffff" d="M 368.136719 262.222656 C 358.328125 264.359375 351.367188 269.894531 347.019531 279.070312 C 344.644531 284.054688 344.488281 284.925781 344.488281 293.070312 C 344.488281 301.0625 344.644531 302.167969 346.703125 306.359375 C 349.785156 312.53125 355.796875 318.464844 362.207031 321.390625 C 371.855469 325.976562 384.195312 325.027344 393.214844 319.015625 C 394.953125 317.910156 396.378906 317.117188 396.535156 317.277344 C 396.613281 317.433594 397.40625 318.9375 398.195312 320.519531 C 399.777344 323.683594 404.683594 326.691406 408.164062 326.691406 C 411.566406 326.691406 416.785156 323.527344 418.683594 320.28125 L 420.582031 317.199219 L 422.640625 318.78125 C 427.621094 322.65625 431.816406 323.921875 440.59375 323.921875 C 447.476562 323.921875 449.535156 323.605469 452.699219 322.101562 C 470.179688 314.191406 477.695312 295.367188 469.785156 279.386719 C 461.714844 263.011719 442.652344 256.765625 425.882812 264.992188 C 419.949219 267.839844 415.914062 272.1875 412.75 278.832031 C 408.242188 288.484375 408.164062 298.054688 412.433594 307.46875 L 414.414062 311.660156 L 412.910156 315.140625 C 410.457031 320.914062 406.976562 320.914062 404.128906 315.140625 L 402.46875 311.660156 L 404.050781 308.257812 C 413.148438 288.640625 402.707031 266.492188 382.375 262.222656 C 375.890625 260.878906 374.464844 260.878906 368.136719 262.222656 Z M 381.585938 284.449219 C 385.855469 287.613281 387.121094 293.546875 384.433594 297.976562 C 380.558594 304.382812 370.984375 304.460938 367.03125 298.054688 C 361.414062 288.800781 372.804688 278.121094 381.585938 284.449219 Z M 447.476562 284.84375 C 451.828125 288.878906 452.539062 294.417969 449.21875 299.082031 C 445.738281 303.988281 437.984375 304.226562 433.714844 299.480469 C 431.5 297.105469 431.101562 296.078125 431.101562 292.753906 C 431.101562 289.671875 431.578125 288.324219 433.238281 286.347656 C 434.347656 284.925781 436.085938 283.5 436.957031 283.105469 C 439.804688 281.917969 445.261719 282.789062 447.476562 284.84375 Z M 447.476562 284.84375 " fill-opacity="1" fill-rule="nonzero"/><path fill="#ffffff" d="M 372.25 288.800781 C 369.007812 291.410156 369.5625 295.839844 373.4375 297.898438 C 375.496094 298.925781 375.96875 298.925781 378.027344 297.898438 C 380.476562 296.632812 381.269531 295.207031 381.269531 292.28125 C 381.269531 290.222656 377.945312 287.140625 375.730469 287.140625 C 374.941406 287.140625 373.4375 287.851562 372.25 288.800781 Z M 372.25 288.800781 " fill-opacity="1" fill-rule="nonzero"/><path fill="#ffffff" d="M 437.589844 288.484375 C 436.640625 289.273438 435.691406 290.855469 435.375 292.042969 C 434.980469 293.785156 435.375 294.652344 437.273438 296.632812 C 440.199219 299.558594 441.386719 299.558594 444.472656 296.949219 C 447.476562 294.417969 447.636719 291.726562 444.945312 289.117188 C 442.730469 286.824219 439.804688 286.585938 437.589844 288.484375 Z M 437.589844 288.484375 " fill-opacity="1" fill-rule="nonzero"/><path fill="#ffffff" d="M 281.285156 322.496094 C 280.414062 323.367188 280.730469 373.359375 281.601562 373.359375 C 282.074219 373.359375 290.617188 369.957031 300.585938 365.765625 C 321.546875 356.90625 319.808594 358.882812 319.410156 344.960938 L 319.175781 336.65625 L 305.726562 331.277344 C 288.007812 324.160156 281.839844 321.945312 281.285156 322.496094 Z M 281.285156 322.496094 " fill-opacity="1" fill-rule="nonzero"/><path fill="#ffffff" d="M 356.113281 351.371094 L 356.351562 373.753906 L 411.167969 373.992188 L 465.90625 374.152344 L 465.90625 329.0625 L 355.957031 329.0625 Z M 370.195312 337.765625 C 370.195312 339.742188 369.878906 340.136719 368.296875 340.136719 C 367.269531 340.136719 366.003906 339.582031 365.449219 338.949219 C 363.945312 337.132812 365.132812 335.390625 367.820312 335.390625 C 369.957031 335.390625 370.195312 335.628906 370.195312 337.765625 Z M 457.046875 336.65625 C 458.710938 337.84375 458.789062 338.316406 458.789062 350.816406 C 458.789062 363.078125 458.710938 363.867188 457.207031 364.660156 C 456.257812 365.132812 454.4375 365.449219 453.015625 365.292969 C 451.117188 365.132812 450.402344 364.660156 450.246094 363.3125 C 450.007812 361.890625 450.402344 361.574219 452.617188 361.335938 C 455.386719 361.097656 456.179688 359.675781 455.308594 356.351562 C 454.992188 355.007812 454.199219 354.375 452.617188 354.21875 C 451.117188 354.058594 450.484375 353.503906 450.484375 352.398438 C 450.484375 351.132812 450.957031 350.816406 453.09375 350.894531 L 455.625 351.054688 L 455.625 346.859375 C 455.625 341.402344 455.070312 340.136719 452.855469 340.136719 C 450.484375 340.136719 449.769531 339.03125 450.878906 336.972656 C 451.90625 335.074219 454.597656 334.917969 457.046875 336.65625 Z M 370.035156 347.414062 C 370.273438 349.472656 370.117188 349.628906 367.503906 349.628906 C 365.289062 349.628906 364.65625 349.3125 364.65625 348.207031 C 364.65625 344.410156 369.640625 343.777344 370.035156 347.414062 Z M 438.222656 347.175781 C 438.222656 348.523438 437.746094 349.628906 436.957031 349.945312 C 435.296875 350.578125 393.449219 350.578125 386.648438 349.867188 C 381.347656 349.390625 381.269531 349.390625 381.269531 347.175781 L 381.269531 344.882812 L 438.222656 344.882812 Z M 369.800781 357.539062 C 369.800781 359.914062 367.03125 360.703125 365.449219 358.726562 C 364.65625 357.777344 364.65625 357.300781 365.449219 356.351562 C 367.03125 354.375 369.800781 355.167969 369.800781 357.539062 Z M 438.0625 357.699219 L 438.300781 359.914062 L 409.746094 359.914062 C 385.144531 359.914062 381.191406 359.753906 380.792969 358.726562 C 380.476562 358.09375 380.476562 356.984375 380.792969 356.351562 C 381.191406 355.324219 384.828125 355.167969 409.507812 355.324219 L 437.828125 355.5625 Z M 438.0625 357.699219 " fill-opacity="1" fill-rule="nonzero"/><path fill="#ffffff" d="M 480.9375 335.628906 L 470.257812 341.324219 L 470.019531 346.859375 C 469.546875 357.066406 469.152344 356.511719 481.886719 362.523438 C 488.136719 365.371094 493.433594 367.507812 493.832031 367.109375 C 494.148438 366.792969 494.304688 358.332031 494.226562 348.363281 C 493.988281 333.019531 493.832031 330.25 492.800781 330.089844 C 492.167969 330.011719 486.789062 332.464844 480.9375 335.628906 Z M 480.9375 335.628906 " fill-opacity="1" fill-rule="nonzero"/><path fill="#ffffff" d="M 336.734375 337.527344 C 336.023438 338.160156 336.023438 351.371094 336.65625 355.324219 L 337.210938 358.332031 L 352 358.332031 L 352 336.972656 L 344.644531 336.972656 C 340.53125 336.972656 336.972656 337.210938 336.734375 337.527344 Z M 336.734375 337.527344 " fill-opacity="1" fill-rule="nonzero"/><path fill="#ffffff" d="M 322.734375 347.652344 L 322.734375 357.539062 L 332.226562 357.539062 L 332.226562 349.390625 C 332.226562 344.960938 332.464844 340.53125 332.699219 339.503906 C 333.175781 337.84375 333.015625 337.765625 327.953125 337.765625 L 322.734375 337.765625 Z M 322.734375 347.652344 " fill-opacity="1" fill-rule="nonzero"/><path fill="#ffffff" d="M 371.933594 387.359375 L 372.171875 395.902344 L 387.835938 396.140625 L 403.417969 396.300781 L 403.417969 398.277344 C 403.417969 400.175781 403.257812 400.253906 397.484375 400.253906 L 391.550781 400.253906 L 391.550781 402.628906 C 391.550781 405.554688 389.8125 406.660156 366.714844 419.632812 C 358.171875 424.378906 347.019531 430.707031 341.875 433.554688 C 332.382812 438.855469 330.722656 440.753906 333.414062 442.96875 C 335.074219 444.394531 336.578125 443.601562 352.398438 433.476562 C 359.359375 429.046875 369.878906 422.324219 375.730469 418.683594 C 381.585938 414.96875 387.675781 411.089844 389.257812 410.0625 C 391.394531 408.558594 393.054688 408.164062 396.929688 408.164062 C 401.835938 408.164062 401.835938 408.164062 401.835938 410.457031 C 401.835938 412.355469 401.441406 412.910156 399.621094 413.226562 C 397.722656 413.703125 396.695312 415.363281 390.761719 427.78125 C 387.121094 435.453125 380.320312 449.691406 375.652344 459.34375 L 367.1875 476.824219 L 363.789062 477.296875 C 361.890625 477.535156 350.894531 478.089844 339.34375 478.5625 C 327.796875 479.039062 316.800781 479.59375 314.824219 479.75 C 312.847656 479.910156 305.253906 480.460938 297.816406 480.9375 C 279.386719 482.125 262.0625 483.308594 258.265625 483.707031 C 256.527344 483.941406 248.140625 484.574219 239.675781 485.289062 C 220.613281 486.789062 191.109375 490.191406 183.277344 491.695312 C 181.855469 492.011719 181.140625 492.566406 181.300781 493.355469 C 181.539062 494.304688 209.699219 494.464844 410.457031 494.464844 C 536.308594 494.464844 639.535156 494.226562 639.773438 493.988281 C 641.433594 492.40625 634.949219 491.140625 609.476562 488.136719 C 590.570312 485.839844 534.882812 481.410156 500.710938 479.355469 C 493.988281 478.960938 485.683594 478.40625 482.28125 478.089844 L 476.113281 477.535156 L 478.878906 475.714844 C 483.074219 472.871094 483.785156 469.546875 482.597656 458.550781 C 481.570312 448.191406 480.066406 443.128906 477.21875 440.28125 C 474.6875 437.75 472 437.667969 467.964844 440.121094 C 464.878906 441.941406 464.722656 441.941406 461.242188 440.675781 C 459.261719 439.964844 457.363281 439.09375 457.128906 438.777344 C 456.8125 438.300781 432.605469 431.105469 431.339844 431.105469 C 431.183594 431.105469 431.101562 431.578125 431.101562 432.210938 C 431.101562 433.398438 434.980469 435.058594 437.90625 435.058594 C 439.488281 435.058594 439.804688 435.453125 439.804688 437.667969 C 439.804688 440.199219 439.960938 440.28125 443.757812 441.070312 C 447.003906 441.78125 447.714844 441.703125 448.109375 440.675781 C 448.503906 439.648438 448.742188 439.726562 449.851562 440.832031 C 450.957031 441.941406 450.957031 442.257812 450.007812 443.445312 C 449.058594 444.550781 449.691406 445.421875 455.703125 451.273438 L 462.425781 457.761719 L 459.183594 457.367188 C 454.199219 456.8125 453.566406 458.078125 453.882812 468.597656 L 454.199219 477.378906 L 450.640625 477.140625 L 447.160156 476.824219 L 439.804688 461.320312 C 416.074219 411.011719 417.179688 413.148438 414.175781 412.753906 C 412.988281 412.59375 412.433594 411.882812 412.277344 410.300781 L 412.039062 408.164062 L 423.191406 408.164062 L 423.191406 400.253906 L 417.261719 400.253906 C 411.484375 400.253906 411.328125 400.175781 411.328125 398.277344 L 411.328125 396.300781 L 427.386719 396.140625 L 443.363281 395.902344 L 443.601562 387.359375 L 443.839844 378.898438 L 371.699219 378.898438 Z M 411.011719 422.007812 C 408.953125 423.90625 408.875 424.300781 409.351562 428.574219 C 409.984375 433.792969 415.046875 470.65625 415.679688 474.371094 L 416.152344 476.980469 L 407.371094 476.980469 C 399.304688 476.980469 398.671875 476.902344 398.671875 475.480469 C 398.671875 474.609375 399.9375 465.195312 401.441406 454.519531 C 405.316406 426.675781 405.554688 423.511719 403.8125 421.613281 C 402.390625 420.03125 402.46875 420.03125 407.769531 420.03125 L 413.148438 420.03125 Z M 395.902344 441.386719 C 395.347656 445.5 394.082031 454.835938 393.132812 462.03125 C 392.105469 469.308594 391.078125 475.636719 390.761719 476.113281 C 390.445312 476.746094 387.835938 476.980469 383.089844 476.824219 L 375.96875 476.585938 L 381.742188 464.328125 C 390.917969 444.945312 396.535156 433.398438 396.773438 433.636719 C 396.851562 433.792969 396.535156 437.273438 395.902344 441.386719 Z M 434.425781 467.492188 C 435.296875 469.46875 436.71875 472.394531 437.511719 473.976562 L 439.011719 476.980469 L 423.589844 476.980469 L 421.769531 464.878906 C 420.820312 458.316406 419.632812 449.613281 419.160156 445.738281 C 418.761719 441.78125 418.210938 437.351562 417.972656 435.851562 C 417.65625 433.476562 427.9375 453.332031 434.425781 467.492188 Z M 464.089844 445.34375 C 466.066406 445.34375 466.460938 446.6875 464.957031 448.664062 C 464.007812 449.851562 463.375 449.535156 459.183594 445.738281 L 454.4375 441.464844 L 458.3125 443.363281 C 460.449219 444.472656 463.058594 445.34375 464.089844 445.34375 Z M 472.316406 460.132812 C 473.34375 461.398438 473.265625 461.480469 472.078125 460.449219 C 471.285156 459.898438 470.652344 459.265625 470.652344 459.105469 C 470.652344 458.472656 471.285156 458.867188 472.316406 460.132812 Z M 472.316406 460.132812 " fill-opacity="1" fill-rule="nonzero"/><path fill="#ffffff" d="M 249.566406 401.519531 C 245.6875 405.476562 249.800781 405.949219 286.425781 405.632812 C 314.824219 405.394531 318.859375 405.238281 319.964844 404.128906 C 321.152344 402.945312 321.152344 402.785156 319.964844 401.519531 C 318.777344 400.414062 315.140625 400.253906 284.765625 400.253906 C 254.628906 400.253906 250.75 400.414062 249.566406 401.519531 Z M 249.566406 401.519531 " fill-opacity="1" fill-rule="nonzero"/><path fill="#ffffff" d="M 496.679688 401.914062 C 496.046875 403.179688 496.046875 403.8125 496.757812 404.527344 C 497.707031 405.476562 562.808594 406.265625 567.789062 405.394531 C 570.71875 404.84375 571.269531 402.390625 568.820312 401.046875 C 567.789062 400.570312 554.898438 400.253906 532.433594 400.253906 C 497.785156 400.253906 497.628906 400.253906 496.679688 401.914062 Z M 496.679688 401.914062 " fill-opacity="1" fill-rule="nonzero"/><path fill="#ffffff" d="M 271.316406 414.886719 C 270.765625 415.519531 270.527344 416.628906 270.84375 417.261719 C 271.238281 418.289062 275.667969 418.449219 307.863281 418.289062 C 342.984375 418.050781 344.488281 417.972656 344.722656 416.550781 C 344.882812 415.757812 344.566406 414.808594 343.933594 414.414062 C 343.378906 414.019531 327.003906 413.703125 307.625 413.703125 C 277.328125 413.703125 272.1875 413.859375 271.316406 414.886719 Z M 271.316406 414.886719 " fill-opacity="1" fill-rule="nonzero"/><path fill="#ffffff" d="M 461.476562 414.886719 C 460.210938 418.050781 461.003906 418.210938 482.28125 418.527344 C 493.515625 418.765625 511.550781 418.765625 522.464844 418.527344 C 540.976562 418.050781 542.242188 417.972656 542.476562 416.550781 C 542.636719 415.757812 542.320312 414.808594 541.6875 414.414062 C 541.132812 414.019531 522.941406 413.703125 501.265625 413.703125 C 467.015625 413.703125 461.875 413.859375 461.476562 414.886719 Z M 461.476562 414.886719 " fill-opacity="1" fill-rule="nonzero"/><path fill="#ffffff" d="M 466.382812 423.589844 C 466.144531 424.300781 465.90625 425.644531 465.90625 426.515625 C 465.90625 427.941406 465.511719 428.097656 462.742188 427.703125 C 458.945312 427.226562 458.550781 428.414062 462.191406 429.363281 C 464.484375 429.996094 464.722656 430.3125 464.722656 433.003906 C 464.722656 436.246094 465.90625 437.433594 469.308594 437.433594 C 472.15625 437.433594 474.609375 436.167969 474.609375 434.664062 C 474.609375 433.871094 475.398438 433.476562 476.980469 433.476562 C 479.75 433.476562 480.066406 432.449219 477.613281 431.339844 C 476.113281 430.707031 475.875 429.996094 476.03125 427.386719 C 476.269531 424.222656 476.269531 424.222656 473.265625 423.667969 C 471.601562 423.429688 469.46875 422.957031 468.597656 422.71875 C 467.488281 422.402344 466.777344 422.71875 466.382812 423.589844 Z M 466.382812 423.589844 " fill-opacity="1" fill-rule="nonzero"/><path fill="#ffffff" d="M 253.996094 429.363281 C 252.648438 431.894531 254.46875 432.6875 261.507812 432.6875 C 266.253906 432.6875 268.234375 432.371094 268.945312 431.5 C 269.734375 430.550781 269.734375 430.074219 268.945312 429.125 C 268.234375 428.257812 266.253906 427.941406 261.351562 427.941406 C 255.734375 427.941406 254.628906 428.175781 253.996094 429.363281 Z M 253.996094 429.363281 " fill-opacity="1" fill-rule="nonzero"/><path fill="#ffffff" d="M 280.257812 428.492188 C 278.832031 429.046875 278.992188 431.65625 280.492188 432.210938 C 282.390625 432.921875 329.300781 432.765625 330.484375 431.972656 C 331.117188 431.578125 331.433594 430.628906 331.277344 429.839844 C 331.039062 428.414062 329.773438 428.335938 306.121094 428.175781 C 292.4375 428.097656 280.730469 428.257812 280.257812 428.492188 Z M 280.257812 428.492188 " fill-opacity="1" fill-rule="nonzero"/><path fill="#ffffff" d="M 486.472656 429.523438 C 484.972656 432.371094 487.503906 432.6875 513.289062 432.6875 C 536.308594 432.6875 537.890625 432.605469 538.601562 431.261719 C 540.261719 428.097656 538.679688 427.941406 512.417969 427.941406 C 488.292969 427.941406 487.265625 428.019531 486.472656 429.523438 Z M 486.472656 429.523438 " fill-opacity="1" fill-rule="nonzero"/><path fill="#ffffff" d="M 550.546875 429.125 C 548.648438 431.421875 550.941406 432.6875 557.191406 432.6875 C 563.441406 432.6875 565.101562 432.054688 564.625 429.839844 C 564.390625 428.574219 563.519531 428.335938 557.980469 428.097656 C 553 427.941406 551.335938 428.175781 550.546875 429.125 Z M 550.546875 429.125 " fill-opacity="1" fill-rule="nonzero"/><path fill="#ffffff" d="M 353.820312 447.082031 C 343.222656 453.171875 342.746094 453.648438 343.773438 455.386719 C 344.25 456.179688 345.199219 456.890625 345.910156 457.050781 C 346.621094 457.207031 351.132812 454.914062 355.957031 451.988281 C 363.15625 447.636719 364.738281 446.449219 364.5 445.027344 C 364.105469 442.257812 361.492188 442.730469 353.820312 447.082031 Z M 353.820312 447.082031 " fill-opacity="1" fill-rule="nonzero"/><path fill="#ffffff" d="M 172.835938 512.578125 C 172.597656 512.972656 172.363281 531.800781 172.441406 554.265625 C 172.441406 591.601562 172.597656 595.316406 173.785156 596.1875 C 175.683594 597.613281 195.300781 596.980469 196.25 595.476562 C 196.644531 594.921875 196.960938 588.277344 196.960938 580.761719 L 196.960938 567.078125 L 214.363281 567.15625 C 223.9375 567.238281 232.082031 567.078125 232.558594 566.761719 C 233.03125 566.445312 233.347656 562.253906 233.347656 556.480469 C 233.347656 548.332031 233.113281 546.671875 232.082031 546.273438 C 231.371094 546.039062 223.222656 545.800781 213.890625 545.800781 L 196.960938 545.800781 L 196.960938 534.726562 L 212.625 534.566406 C 235.5625 534.332031 236.117188 534.25 237.144531 533.617188 C 238.492188 532.828125 238.492188 514.082031 237.144531 512.734375 C 235.960938 511.550781 173.628906 511.390625 172.835938 512.578125 Z M 172.835938 512.578125 " fill-opacity="1" fill-rule="nonzero"/><path fill="#ffffff" d="M 248.535156 512.734375 C 247.035156 514.238281 247.269531 563.597656 248.773438 570.242188 C 250.433594 577.203125 253.441406 582.34375 258.976562 587.804688 C 267.363281 596.109375 278.910156 600.222656 291.804688 599.351562 C 306.835938 598.402344 318.859375 591.125 325.421875 579.023438 C 329.535156 571.429688 329.851562 569.054688 329.851562 539.789062 C 329.851562 515.820312 329.695312 512.65625 328.585938 512.261719 C 326.214844 511.390625 306.28125 511.707031 305.648438 512.734375 C 305.332031 513.210938 304.9375 524.523438 304.777344 537.8125 C 304.621094 552.050781 304.144531 563.042969 303.671875 564.546875 C 303.195312 565.972656 301.375 568.34375 299.636719 569.847656 C 291.648438 576.730469 278.515625 574.277344 274.402344 565.257812 C 273.058594 562.332031 272.898438 559.644531 272.898438 537.8125 C 272.898438 520.09375 272.664062 513.449219 271.949219 512.734375 C 270.605469 511.390625 249.882812 511.390625 248.535156 512.734375 Z M 248.535156 512.734375 " fill-opacity="1" fill-rule="nonzero"/><path fill="#ffffff" d="M 392.5 512.65625 C 392.660156 513.132812 395.664062 516.847656 399.066406 520.960938 L 405.394531 528.320312 L 417.734375 528.398438 C 424.539062 528.398438 430.3125 528.160156 430.550781 527.921875 C 431.023438 527.371094 426.039062 521.042969 420.503906 515.109375 L 417.339844 511.785156 L 404.761719 511.785156 C 395.902344 511.785156 392.265625 512.023438 392.5 512.65625 Z M 392.5 512.65625 " fill-opacity="1" fill-rule="nonzero"/><path fill="#ffffff" d="M 486.632812 512.5 C 485.839844 512.972656 485.605469 518.746094 485.683594 539.789062 C 485.683594 554.738281 486.078125 568.105469 486.554688 570.085938 C 487.898438 576.175781 491.378906 582.34375 496.363281 587.328125 C 516.214844 607.339844 551.890625 601.960938 563.597656 577.203125 C 565.179688 574.039062 566.761719 569.292969 567.15625 566.683594 C 568.34375 559.644531 568.1875 513.921875 567 512.734375 C 565.65625 511.390625 544.929688 511.390625 543.585938 512.734375 C 542.875 513.449219 542.636719 520.09375 542.636719 537.890625 C 542.636719 561.382812 542.558594 562.175781 540.894531 565.574219 C 535.28125 576.648438 518.351562 576.492188 512.339844 565.339844 C 510.679688 562.09375 510.601562 561.226562 510.441406 537.574219 C 510.285156 518.589844 510.046875 512.972656 509.253906 512.5 C 507.910156 511.628906 487.976562 511.628906 486.632812 512.5 Z M 486.632812 512.5 " fill-opacity="1" fill-rule="nonzero"/><path fill="#ffffff" d="M 601.011719 513.527344 C 600.460938 514.554688 598.5625 519.460938 596.742188 524.441406 C 594.921875 529.425781 592.152344 536.941406 590.652344 541.054688 C 589.148438 545.167969 585.035156 556.398438 581.554688 565.972656 C 578.074219 575.542969 574.277344 585.746094 573.167969 588.671875 C 572.0625 591.601562 571.351562 594.527344 571.585938 595.160156 C 571.824219 595.871094 573.25 596.582031 574.671875 596.898438 C 578.390625 597.613281 596.425781 596.582031 597.613281 595.632812 C 598.164062 595.160156 599.828125 591.441406 601.25 587.25 L 603.941406 579.8125 L 617.78125 579.972656 L 631.546875 580.210938 L 634.394531 587.488281 C 635.898438 591.519531 637.636719 595.238281 638.113281 595.714844 C 639.21875 596.820312 660.894531 597.214844 663.109375 596.1875 C 663.820312 595.871094 664.453125 594.921875 664.453125 594.132812 C 664.453125 593.261719 658.363281 576.648438 650.925781 557.113281 C 643.492188 537.652344 636.847656 520.09375 636.214844 518.113281 C 634 511.628906 634.550781 511.785156 617.308594 511.785156 C 602.277344 511.785156 601.960938 511.785156 601.011719 513.527344 Z M 621.578125 548.804688 C 623.398438 553.472656 624.980469 557.507812 624.902344 557.824219 C 624.902344 558.21875 621.660156 558.457031 617.703125 558.457031 C 612.246094 558.457031 610.585938 558.21875 610.820312 557.429688 C 613.273438 550.386719 617.386719 540.261719 617.703125 540.261719 C 617.941406 540.261719 619.679688 544.058594 621.578125 548.804688 Z M 621.578125 548.804688 " fill-opacity="1" fill-rule="nonzero"/><path fill="#ffffff" d="M 357.617188 525.15625 C 357.0625 525.550781 356.746094 526.65625 356.90625 527.6875 C 357.222656 530.296875 361.019531 530.453125 361.335938 527.84375 C 361.652344 525.867188 359.199219 524.207031 357.617188 525.15625 Z M 357.617188 525.15625 " fill-opacity="1" fill-rule="nonzero"/><path fill="#ffffff" d="M 351.683594 536.78125 C 351.449219 537.414062 351.449219 550.785156 351.765625 566.445312 C 352.160156 590.175781 352.476562 595 353.425781 595.871094 C 355.007812 597.136719 366.398438 597.613281 368.535156 596.503906 C 370.117188 595.632812 370.195312 595.082031 370.195312 577.441406 L 370.195312 559.246094 L 443.757812 559.246094 L 443.757812 576.808594 C 443.757812 586.539062 444.15625 595 444.550781 595.632812 C 445.105469 596.503906 447.160156 596.898438 452.222656 597.058594 C 463.535156 597.53125 462.742188 600.0625 462.824219 565.8125 C 462.824219 549.992188 462.664062 536.78125 462.347656 536.308594 C 462.03125 535.753906 443.363281 535.515625 406.976562 535.515625 C 357.933594 535.515625 352.160156 535.675781 351.683594 536.78125 Z M 396.929688 541.132812 C 396.140625 543.585938 387.753906 554.421875 386.410156 554.816406 C 384.273438 555.449219 375.335938 555.449219 374.703125 554.816406 C 374.230469 554.34375 375.179688 552.683594 380.320312 545.167969 L 383.722656 540.261719 L 390.445312 540.261719 C 395.03125 540.261719 397.089844 540.578125 396.929688 541.132812 Z M 417.179688 541.210938 C 414.097656 546.433594 407.847656 554.421875 406.660156 554.738281 C 405.789062 554.976562 402.785156 554.898438 399.9375 554.738281 L 394.796875 554.265625 L 399.621094 547.304688 L 404.445312 540.261719 L 411.089844 540.261719 C 416.230469 540.261719 417.578125 540.5 417.179688 541.210938 Z M 433.398438 547.382812 C 430.707031 551.335938 428.019531 554.5 427.304688 554.582031 C 424.539062 554.660156 415.679688 554.34375 415.441406 554.105469 C 415.28125 553.949219 417.023438 551.335938 419.238281 548.171875 C 421.453125 545.007812 423.507812 542.003906 423.746094 541.371094 C 424.0625 540.5 425.882812 540.261719 431.183594 540.261719 L 438.300781 540.261719 Z M 433.398438 547.382812 " fill-opacity="1" fill-rule="nonzero"/><path fill="#ffffff" d="M 373.359375 566.289062 C 373.359375 569.609375 373.597656 570.164062 375.179688 570.636719 C 376.128906 570.875 383.089844 571.113281 390.601562 571.113281 L 404.207031 571.113281 L 404.207031 562.410156 L 373.359375 562.410156 Z M 373.359375 566.289062 " fill-opacity="1" fill-rule="nonzero"/><path fill="#ffffff" d="M 406.898438 563.519531 C 406.660156 564.152344 406.582031 565.972656 406.738281 567.632812 L 406.976562 570.71875 L 421.214844 570.953125 C 429.046875 571.113281 436.640625 570.953125 438.0625 570.71875 C 440.515625 570.242188 440.59375 570.164062 440.59375 566.367188 L 440.59375 562.410156 L 423.984375 562.410156 C 410.457031 562.410156 407.214844 562.648438 406.898438 563.519531 Z M 406.898438 563.519531 " fill-opacity="1" fill-rule="nonzero"/><path fill="#ffffff" d="M 373.359375 577.679688 L 373.359375 581.949219 L 378.183594 582.503906 C 387.203125 583.375 386.804688 583.609375 386.804688 578.628906 L 386.804688 574.277344 L 381.347656 574.277344 C 378.34375 574.277344 375.335938 574.039062 374.625 573.800781 C 373.597656 573.40625 373.359375 574.039062 373.359375 577.679688 Z M 373.359375 577.679688 " fill-opacity="1" fill-rule="nonzero"/><path fill="#ffffff" d="M 389.96875 578.152344 L 389.96875 582.027344 L 394.164062 582.425781 C 396.378906 582.742188 402.941406 582.820312 408.558594 582.660156 L 418.84375 582.425781 L 419.078125 578.3125 L 419.316406 574.277344 L 389.96875 574.277344 Z M 389.96875 578.152344 " fill-opacity="1" fill-rule="nonzero"/><path fill="#ffffff" d="M 421.609375 578.152344 C 421.609375 582.742188 422.007812 582.976562 431.65625 582.976562 C 440.277344 582.976562 440.59375 582.820312 440.59375 578.152344 L 440.59375 574.277344 L 421.609375 574.277344 Z M 421.609375 578.152344 " fill-opacity="1" fill-rule="nonzero"/><path fill="#ffffff" d="M 416.230469 612.246094 C 415.441406 613.117188 414.332031 615.09375 413.78125 616.675781 C 413.226562 618.257812 412.039062 621.183594 411.167969 623.160156 L 409.507812 626.800781 L 407.054688 620.078125 C 405.632812 616.359375 404.207031 612.957031 403.890625 612.402344 C 403.101562 611.058594 399.066406 611.21875 397.878906 612.640625 C 396.613281 614.222656 397.328125 616.914062 402.230469 628.066406 C 406.503906 637.796875 407.453125 639.0625 410.300781 638.507812 C 411.960938 638.191406 412.832031 636.925781 415.28125 631.703125 C 420.820312 619.523438 422.71875 613.984375 421.691406 612.71875 C 420.1875 610.902344 417.734375 610.664062 416.230469 612.246094 Z M 416.230469 612.246094 " fill-opacity="1" fill-rule="nonzero"/><path fill="#ffffff" d="M 502.292969 611.769531 C 497.3125 613.589844 495.097656 620.234375 498.261719 624.269531 C 499.128906 625.296875 501.265625 626.878906 503.085938 627.671875 C 505.222656 628.621094 506.25 629.570312 506.089844 630.359375 C 505.855469 631.625 504.429688 631.703125 499.128906 631.070312 C 497.628906 630.914062 497.074219 631.308594 496.441406 633.050781 C 494.066406 639.695312 508.78125 641.355469 512.972656 634.867188 C 514.554688 632.574219 514.714844 628.222656 513.449219 625.773438 C 512.894531 624.902344 510.757812 623.242188 508.542969 622.054688 C 503.71875 619.679688 503.875 618.179688 508.9375 618.179688 C 514.316406 618.179688 515.582031 615.726562 511.707031 612.878906 C 509.097656 610.980469 505.617188 610.503906 502.292969 611.769531 Z M 502.292969 611.769531 " fill-opacity="1" fill-rule="nonzero"/><path fill="#ffffff" d="M 316.011719 612.167969 C 315.140625 613.667969 310.949219 636.132812 311.421875 637.242188 C 311.898438 638.585938 314.429688 639.378906 316.328125 638.746094 C 317.355469 638.429688 318.144531 637.003906 318.777344 634.15625 C 320.28125 627.433594 320.359375 627.355469 322.496094 631.625 C 326.53125 639.613281 327.71875 639.695312 330.644531 632.417969 C 331.59375 630.042969 332.699219 628.066406 333.015625 628.066406 C 333.332031 628.066406 333.964844 629.964844 334.519531 632.335938 C 335.863281 638.269531 337.050781 639.695312 339.820312 638.746094 C 341.085938 638.269531 342.191406 637.242188 342.351562 636.449219 C 342.667969 634.789062 338.792969 614.933594 337.84375 613.035156 C 337.445312 612.402344 336.339844 611.851562 335.3125 611.851562 C 333.808594 611.851562 332.859375 612.878906 330.644531 616.914062 C 329.140625 619.761719 327.558594 622.132812 327.085938 622.292969 C 326.6875 622.449219 325.027344 620.15625 323.523438 617.148438 C 321.308594 612.878906 320.359375 611.769531 318.621094 611.613281 C 317.511719 611.453125 316.328125 611.769531 316.011719 612.167969 Z M 316.011719 612.167969 " fill-opacity="1" fill-rule="nonzero"/><path fill="#ffffff" d="M 362.679688 612.484375 C 359.675781 613.90625 357.933594 615.882812 356.351562 619.601562 C 352 630.042969 361.492188 641.511719 372.015625 638.347656 C 381.191406 635.660156 385.144531 627.355469 381.347656 618.890625 C 379.210938 614.144531 375.652344 611.929688 369.800781 611.691406 C 366.953125 611.535156 364.105469 611.851562 362.679688 612.484375 Z M 372.964844 620.550781 C 375.730469 623.242188 375.652344 627.355469 372.882812 629.570312 C 370.195312 631.703125 367.585938 631.703125 365.132812 629.410156 C 362.046875 626.722656 361.808594 624.03125 364.261719 621.105469 C 366.953125 617.941406 370.195312 617.703125 372.964844 620.550781 Z M 372.964844 620.550781 " fill-opacity="1" fill-rule="nonzero"/><path fill="#ffffff" d="M 439.171875 612.402344 C 438.539062 613.035156 438.222656 617.070312 438.222656 625.457031 C 438.222656 637.480469 438.222656 637.636719 440.121094 638.429688 C 441.464844 639.0625 442.414062 639.0625 443.679688 638.429688 C 445.261719 637.558594 445.339844 636.925781 445.339844 625.457031 C 445.339844 612.71875 445.023438 611.453125 441.78125 611.453125 C 440.832031 611.453125 439.726562 611.851562 439.171875 612.402344 Z M 439.171875 612.402344 " fill-opacity="1" fill-rule="nonzero"/><path fill="#ffffff" d="M 464.007812 613.195312 C 463.140625 614.699219 462.980469 617.308594 463.457031 626.484375 L 463.929688 637.953125 L 472.394531 638.191406 C 480.144531 638.347656 480.9375 638.269531 481.648438 636.847656 C 482.519531 635.183594 482.042969 632.8125 480.621094 631.863281 C 480.144531 631.546875 477.695312 631.230469 475.242188 631.230469 C 471.207031 631.230469 470.652344 631.070312 470.652344 629.648438 C 470.652344 628.304688 471.207031 628.066406 474.132812 628.066406 C 478.011719 628.066406 479.59375 626.722656 479.195312 623.953125 C 478.960938 622.371094 478.484375 622.132812 474.847656 621.894531 C 471.367188 621.660156 470.652344 621.421875 470.652344 620.15625 C 470.652344 618.8125 471.367188 618.652344 475.953125 618.414062 C 481.726562 618.179688 482.441406 617.546875 481.410156 613.351562 C 480.9375 611.535156 480.699219 611.453125 473.027344 611.453125 C 465.75 611.453125 465.039062 611.613281 464.007812 613.195312 Z M 464.007812 613.195312 " fill-opacity="1" fill-rule="nonzero"/></svg>